# Blender 4.5.0
# www.blender.org
mtllib chair.mtl
o Cube
v 0.214535 0.185294 -0.175000
v 0.214535 0.238235 0.175000
v -0.193605 0.185294 -0.175000
v -0.193605 0.238235 0.175000
v 0.214535 0.238235 -0.225000
v -0.193605 0.238235 -0.225000
v -0.193605 0.661765 -0.225000
v 0.214535 0.661765 -0.225000
v -0.193605 0.661765 -0.250966
v 0.214535 0.661765 -0.250966
v -0.193605 0.185294 0.225000
v 0.214535 0.185294 0.225000
v -0.193605 -0.238235 0.225000
v 0.214535 -0.238235 0.225000
v -0.193605 -0.238235 0.275000
v 0.214535 -0.238235 0.275000
v 0.235465 0.185294 -0.175000
v 0.235465 0.238235 0.175000
v 0.235465 0.238235 -0.225000
v 0.235465 0.185294 0.225000
v -0.214535 0.185294 -0.175000
v -0.214535 0.238235 0.175000
v -0.214535 0.238235 -0.225000
v -0.214535 0.185294 0.225000
v 0.214535 0.185294 0.135000
v 0.214535 0.142941 0.175000
v 0.214535 0.179620 0.155000
v 0.214535 0.164118 0.169641
v -0.193605 0.142941 0.175000
v -0.193605 0.185294 0.135000
v -0.193605 0.164118 0.169641
v -0.193605 0.179620 0.155000
v -0.193605 0.238235 0.185000
v -0.193605 0.195882 0.225000
v -0.193605 0.232561 0.205000
v -0.193605 0.217059 0.219641
v 0.214535 0.195882 0.225000
v 0.214535 0.238235 0.185000
v 0.214535 0.217059 0.219641
v 0.214535 0.232561 0.205000
v 0.235465 0.142941 0.175000
v 0.235465 0.185294 0.135000
v 0.235465 0.227647 0.175000
v 0.235465 0.185294 0.215000
v 0.235465 0.164118 0.169641
v 0.235465 0.179620 0.155000
v 0.235465 0.195882 0.225000
v 0.235465 0.217059 0.219641
v -0.214535 0.185294 0.135000
v -0.214535 0.142941 0.175000
v -0.214535 0.185294 0.215000
v -0.214535 0.227647 0.175000
v -0.214535 0.179620 0.155000
v -0.214535 0.164118 0.169641
v -0.214535 0.195882 0.225000
v -0.214535 0.238235 0.185000
v -0.214535 0.217059 0.219641
v -0.214535 0.232561 0.205000
v 0.214535 0.238235 -0.135000
v 0.214535 0.280588 -0.175000
v 0.214535 0.243910 -0.155000
v 0.214535 0.259412 -0.169641
v -0.193605 0.280588 -0.175000
v -0.193605 0.238235 -0.135000
v -0.193605 0.259412 -0.169641
v -0.193605 0.243910 -0.155000
v 0.214535 0.227647 -0.225000
v 0.214535 0.185294 -0.185000
v 0.214535 0.142941 -0.225000
v 0.172674 0.185294 -0.225000
v 0.214535 0.206471 -0.219641
v 0.214535 0.190968 -0.205000
v -0.193605 0.185294 -0.185000
v -0.193605 0.227647 -0.225000
v -0.151744 0.185294 -0.225000
v -0.193605 0.142941 -0.225000
v -0.193605 0.190968 -0.205000
v -0.193605 0.206471 -0.219641
v 0.235465 0.280588 -0.175000
v 0.235465 0.238235 -0.135000
v 0.235465 0.195882 -0.175000
v 0.235465 0.238235 -0.215000
v 0.235465 0.259412 -0.169641
v 0.235465 0.243910 -0.155000
v 0.235465 0.185294 -0.185000
v 0.235465 0.227647 -0.225000
v 0.235465 0.190968 -0.205000
v 0.235465 0.206471 -0.219641
v -0.214535 0.238235 -0.135000
v -0.214535 0.280588 -0.175000
v -0.214535 0.238235 -0.215000
v -0.214535 0.195882 -0.175000
v -0.214535 0.243910 -0.155000
v -0.214535 0.259412 -0.169641
v -0.214535 0.227647 -0.225000
v -0.214535 0.185294 -0.185000
v -0.214535 0.206471 -0.219641
v -0.214535 0.190968 -0.205000
v 0.214535 0.238235 0.185000
v 0.235465 0.238235 0.175000
v 0.225000 0.238235 0.183660
v 0.232661 0.238235 0.180000
v 0.235465 0.217059 0.219641
v 0.214535 0.232561 0.205000
v 0.232661 0.224810 0.212321
v 0.225000 0.230484 0.206962
v 0.235465 -0.227647 0.223611
v 0.225000 -0.238235 0.225000
v 0.234063 -0.232941 0.224306
v 0.230233 -0.236817 0.224814
v 0.225000 -0.238235 0.275000
v 0.235465 -0.227647 0.273750
v 0.230233 -0.236817 0.274833
v 0.234063 -0.232941 0.274375
v -0.204070 -0.238235 0.225000
v -0.214535 -0.227647 0.223611
v -0.209302 -0.236817 0.224814
v -0.213133 -0.232941 0.224306
v -0.214535 -0.227647 0.273750
v -0.204070 -0.238235 0.275000
v -0.213133 -0.232941 0.274375
v -0.209302 -0.236817 0.274833
v 0.204070 -0.238235 -0.235000
v 0.214535 -0.227693 -0.223755
v 0.209302 -0.236823 -0.229833
v 0.213133 -0.232964 -0.225717
v -0.193605 -0.227693 -0.223755
v -0.183140 -0.238235 -0.235000
v -0.192203 -0.232964 -0.225717
v -0.188372 -0.236823 -0.229833
v 0.214535 -0.227693 -0.273617
v 0.204070 -0.238235 -0.265000
v 0.213133 -0.232964 -0.272969
v 0.209302 -0.236823 -0.269815
v -0.183140 -0.238235 -0.265000
v -0.193605 -0.227693 -0.273617
v -0.188372 -0.236823 -0.269815
v -0.192203 -0.232964 -0.272969
v 0.235465 0.651176 -0.223611
v 0.225000 0.661765 -0.225000
v 0.234063 0.656471 -0.224306
v 0.230233 0.660346 -0.224814
v 0.225000 0.661765 -0.250966
v 0.235465 0.651176 -0.250317
v 0.230233 0.660346 -0.250879
v 0.234063 0.656471 -0.250641
v -0.204070 0.661765 -0.225000
v -0.214535 0.651176 -0.223611
v -0.209302 0.660346 -0.224814
v -0.213133 0.656471 -0.224306
v -0.214535 0.651176 -0.250317
v -0.204070 0.661765 -0.250966
v -0.213133 0.656471 -0.250641
v -0.209302 0.660346 -0.250879
vn 0.2720 -0.9121 0.3067
vn -0.0000 1.0000 -0.0000
vn -0.2720 -0.9121 0.3067
vn -0.0000 -0.0306 -0.9995
vn -0.0000 0.7352 0.6778
vn -0.0000 0.6628 -0.7488
vn -0.0000 0.0587 0.9983
vn -0.0000 -0.7352 -0.6778
vn -0.0000 -0.6404 0.7681
vn 0.7112 -0.7030 -0.0000
vn 0.7112 0.7030 -0.0000
vn 0.6984 -0.0219 -0.7154
vn 0.7055 0.0416 0.7075
vn -0.7112 -0.7030 -0.0000
vn -0.7112 0.7030 -0.0000
vn -0.6984 -0.0219 -0.7154
vn -0.7055 0.0416 0.7075
vn -0.0000 -0.9904 -0.1381
vn -0.0000 -0.1879 -0.9822
vn -0.0000 -0.8532 -0.5216
vn -0.0000 -0.4787 -0.8780
vn -0.0000 0.9904 0.1381
vn -0.0000 0.1234 0.9924
vn -0.0000 0.8532 0.5216
vn -0.0000 0.4787 0.8780
vn -0.0000 0.9976 0.0689
vn -0.0000 0.8857 0.4642
vn 0.7061 -0.1331 -0.6955
vn 0.7413 -0.6648 -0.0927
vn 1.0000 -0.0000 -0.0000
vn 0.6413 -0.3673 -0.6737
vn 0.6520 -0.6469 -0.3955
vn 0.6624 0.0924 0.7434
vn 0.4482 0.4279 0.7848
vn -0.7413 -0.6648 -0.0927
vn -0.7061 -0.1331 -0.6955
vn -1.0000 -0.0000 -0.0000
vn -0.6520 -0.6469 -0.3955
vn -0.6413 -0.3673 -0.6737
vn -0.6624 0.0924 0.7434
vn -0.6828 0.7236 0.1009
vn -0.6413 0.3673 0.6737
vn -0.6520 0.6469 0.3955
vn -0.0000 0.1879 0.9822
vn 0.0766 -0.0626 -0.9951
vn 0.6687 -0.6839 -0.2918
vn 0.6845 0.0635 -0.7263
vn 0.1495 0.0462 -0.9877
vn 0.2910 -0.2778 -0.9155
vn 0.3240 -0.5358 -0.7797
vn -0.6687 -0.6839 -0.2918
vn -0.0766 -0.0626 -0.9951
vn -0.1495 0.0462 -0.9877
vn -0.6845 0.0635 -0.7263
vn -0.3240 -0.5358 -0.7797
vn -0.2910 -0.2778 -0.9155
vn 0.7061 0.1331 0.6955
vn 0.7413 0.6648 0.0927
vn 0.6413 0.3673 0.6737
vn 0.6520 0.6469 0.3955
vn 0.6828 -0.7236 -0.1009
vn 0.6624 -0.0924 -0.7434
vn -0.7413 0.6648 0.0927
vn -0.7061 0.1331 0.6955
vn -0.6624 -0.0924 -0.7434
vn -0.6828 -0.7236 -0.1009
vn 0.0305 0.9940 0.1051
vn 0.7224 0.6887 0.0624
vn 0.1169 0.9764 0.1818
vn 0.3902 0.9003 0.1931
vn 0.7105 0.5132 0.4815
vn 0.0328 0.9317 0.3617
vn 0.3929 0.7528 0.5281
vn 0.1288 0.8481 0.5140
vn 0.7088 -0.1738 -0.6837
vn 0.0904 -0.7560 -0.6484
vn 0.6349 -0.4303 -0.6417
vn 0.3641 -0.6896 -0.6259
vn 0.0989 -0.6628 0.7423
vn 0.7171 -0.0185 0.6968
vn 0.3834 -0.5885 0.7118
vn 0.6541 -0.3072 0.6912
vn -0.0904 -0.7560 -0.6484
vn -0.7088 -0.1738 -0.6837
vn -0.3641 -0.6896 -0.6259
vn -0.6349 -0.4303 -0.6417
vn -0.7171 -0.0185 0.6968
vn -0.0989 -0.6628 0.7423
vn -0.6541 -0.3073 0.6912
vn -0.3834 -0.5885 0.7118
vn 0.0998 -0.9900 0.0999
vn 0.6802 -0.2337 0.6947
vn 0.3361 -0.8850 0.3221
vn 0.5805 -0.5828 0.5686
vn -0.6802 -0.2337 0.6947
vn -0.0998 -0.9900 0.0999
vn -0.5805 -0.5828 0.5686
vn -0.3361 -0.8850 0.3221
vn 0.6848 -0.0834 -0.7239
vn 0.0984 -0.9892 -0.1083
vn 0.5824 -0.4892 -0.6492
vn 0.3307 -0.8626 -0.3829
vn -0.0984 -0.9892 -0.1083
vn -0.6848 -0.0834 -0.7239
vn -0.3307 -0.8626 -0.3829
vn -0.5824 -0.4892 -0.6492
vn 0.7088 0.1738 0.6837
vn 0.0904 0.7560 0.6484
vn 0.6349 0.4303 0.6417
vn 0.3641 0.6897 0.6259
vn 0.0966 0.6849 -0.7222
vn 0.7148 0.0541 -0.6972
vn 0.3781 0.6128 -0.6939
vn 0.6489 0.3364 -0.6825
vn -0.0904 0.7560 0.6484
vn -0.7088 0.1738 0.6837
vn -0.3641 0.6896 0.6259
vn -0.6349 0.4303 0.6417
vn -0.7148 0.0541 -0.6972
vn -0.0966 0.6849 -0.7222
vn -0.6489 0.3364 -0.6825
vn -0.3781 0.6128 -0.6939
vt 0.875000 0.500000
vt 0.625000 0.500000
vt 0.625000 0.250000
vt 0.125000 0.750000
vt 0.375000 0.750000
vt 0.375000 1.000000
vt 0.375000 0.750000
vt 0.375000 0.750000
vt 0.375000 0.746739
vt 0.375000 0.724492
vt 0.575000 0.750000
vt 0.375000 0.024469
vt 0.375000 0.000000
vt 0.375000 0.000000
vt 0.548077 0.000000
vt 0.125000 0.721429
vt 0.375000 0.721429
vt 0.375000 0.735714
vt 0.125000 0.735714
vt 0.375000 0.750000
vt 0.625000 0.750000
vt 0.875000 0.750000
vt 0.625000 1.000000
vt 0.525000 1.000000
vt 0.525000 0.750000
vt 0.425000 1.000000
vt 0.425000 0.750000
vt 0.425000 0.750000
vt 0.525000 0.750000
vt 0.875000 0.750000
vt 0.525000 1.000000
vt 0.425000 1.000000
vt 0.125000 0.750000
vt 0.125000 0.721429
vt 0.125000 0.500000
vt 0.375000 0.500000
vt 0.625000 0.000000
vt 0.425000 0.000000
vt 0.525000 0.000000
vt 0.598205 0.000000
vt 0.575000 0.500000
vt 0.475000 0.500000
vt 0.393948 0.500000
vt 0.375000 0.500000
vt 0.375000 0.474359
vt 0.375000 0.250000
vt 0.375000 0.250000
vt 0.404284 0.250000
vt 0.555501 0.250000
vt 0.375000 0.275641
vt 0.375000 0.250000
vt 0.625000 0.500000
vt 0.625000 0.503261
vt 0.625000 0.525411
vt 0.425000 0.500000
vt 0.625000 0.221429
vt 0.625000 0.235714
vt 0.625000 0.246172
vt 0.625000 0.250000
vt 0.425000 0.250000
vt 0.575000 0.500000
vt 0.475000 0.500000
vt 0.391367 0.500000
vt 0.375000 0.500000
vt 0.875000 0.528571
vt 0.625000 0.528571
vt 0.625000 0.514286
vt 0.875000 0.514286
vt 0.625000 0.500000
vt 0.875000 0.500000
vt 0.875000 0.500000
vt 0.875000 0.514286
vt 0.575000 0.250000
vt 0.475000 0.250000
vt 0.391367 0.250000
vt 0.525000 0.750000
vt 0.625000 0.750000
vt 0.625000 0.750000
vt 0.567301 0.750000
vt 0.625384 0.750000
vt 0.611247 0.750000
vt 0.625000 0.750000
vt 0.125000 0.750000
vt 0.125000 0.750000
vt 0.375000 1.000000
vt 0.125815 0.500000
vt 0.374229 0.500000
vt 0.128205 0.500000
vt 0.371795 0.500000
vt 0.131410 0.500000
vt 0.368590 0.500000
vt 0.368590 0.500000
vt 0.131410 0.500000
vt 0.128205 0.500000
vt 0.371795 0.500000
vt 0.125766 0.500000
vt 0.374629 0.499608
vt 0.375000 0.250761
vt 0.375000 0.500000
vt 0.625000 0.500000
vt 0.625000 0.500000
vt 0.625000 0.500000
vt 0.875000 0.500000
vt 0.625000 0.250000
vt 0.625000 0.250000
s 1
usemtl Material
f 7/1/5 8/2/5 10/2/6 9/1/6
f 5/2/4 6/3/4 9/3/6 10/2/6
f 13/4/8 14/5/8 16/5/9 15/4/9
f 12/5/7 11/6/7 15/6/9 16/5/9
f 41/7/28 45/8/31 46/9/32 42/10/29 43/11/30 44/5/30
f 49/12/35 53/13/38 54/13/39 50/14/36 51/13/37 52/15/37
f 30/16/18 25/17/18 27/18/20 32/19/20
f 32/19/20 27/18/20 28/20/21 31/4/21
f 31/4/21 28/20/21 26/7/19 29/4/19
f 41/7/28 26/7/19 28/20/21 45/8/31
f 45/8/31 28/20/21 27/18/20 46/9/32
f 46/9/32 27/18/20 25/17/18 42/10/29
f 38/21/26 33/22/22 35/22/24 40/21/27
f 40/21/27 35/23/24 36/24/25 39/25/25
f 39/25/25 36/24/25 34/26/23 37/27/23
f 37/27/23 47/28/33 48/29/34 39/25/25
f 33/22/22 56/30/41 58/22/43 35/22/24
f 35/23/24 58/23/43 57/31/42 36/24/25
f 36/24/25 57/31/42 55/32/40 34/26/23
f 29/4/19 50/4/36 54/33/39 31/4/21
f 31/4/21 54/33/39 53/19/38 32/19/20
f 32/19/20 53/19/38 49/34/35 30/16/18
f 29/4/19 26/7/19 14/5/8 13/4/8
f 3/35/3 1/36/1 25/17/18 30/16/18
f 25/17/18 1/36/1 17/36/10 42/10/29
f 3/35/3 30/16/18 49/34/35 21/35/14
f 12/5/7 37/27/23 34/26/23 11/6/7
f 2/21/2 4/22/2 33/22/22 38/21/26
f 33/22/22 4/22/2 22/22/15 56/30/41
f 11/6/7 34/26/23 55/32/40 24/6/17
f 37/27/23 12/5/7 20/5/13 47/28/33
f 22/37/15 52/15/37 51/13/37 24/13/17 55/38/40 57/39/42 58/40/43 56/37/41
f 67/41/45 71/42/49 72/43/50 68/44/46 69/44/47 70/45/48
f 73/46/51 77/47/55 78/48/56 74/49/52 75/50/53 76/51/54
f 79/52/57 83/2/59 84/53/60 80/54/58 81/55/30 82/52/30
f 89/56/63 93/57/43 94/58/42 90/59/64 91/59/37 92/60/37
f 67/41/45 86/61/62 88/62/31 71/42/49
f 71/42/49 88/62/31 87/63/32 72/43/50
f 72/43/50 87/63/32 85/64/61 68/44/46
f 64/65/22 59/66/22 61/67/24 66/68/24
f 66/68/24 61/67/24 62/69/25 65/70/25
f 65/70/25 62/69/25 60/2/44 63/71/44
f 79/52/57 60/2/44 62/69/25 83/2/59
f 83/2/59 62/69/25 61/67/24 84/53/60
f 84/53/60 61/67/24 59/66/22 80/54/58
f 63/71/44 90/1/64 94/1/42 65/70/25
f 65/70/25 94/1/42 93/72/43 66/68/24
f 66/68/24 93/72/43 89/65/63 64/65/22
f 95/73/65 74/49/52 78/48/56 97/74/39
f 97/74/39 78/48/56 77/47/55 98/75/38
f 98/75/38 77/47/55 73/46/51 96/46/66
f 103/76/71 100/77/68 102/78/70 105/79/73
f 105/79/73 102/78/70 101/80/69 106/81/74
f 106/81/74 101/80/69 99/21/67 104/82/72
f 59/66/22 2/21/2 18/21/11 80/54/58
f 59/66/22 64/65/22 4/22/2 2/21/2
f 63/71/44 60/2/44 8/2/5 7/1/5
f 4/22/2 64/65/22 89/65/63 22/22/15
f 67/41/45 5/2/4 19/2/12 86/61/62
f 1/36/1 68/44/46 85/64/61 17/36/10
f 75/50/53 74/49/52 6/3/4 5/2/4 67/41/45 70/45/48
f 73/46/51 3/46/3 21/46/14 96/46/66
f 6/3/4 74/49/52 95/73/65 23/3/16
f 17/36/10 81/55/30 80/54/58 18/21/11 43/11/30 42/10/29
f 82/52/30 81/55/30 17/36/10 85/64/61 87/63/32 88/62/31 86/61/62 19/2/12
f 49/12/35 52/15/37 22/37/15 89/56/63 92/60/37 21/46/14
f 21/46/14 92/60/37 91/59/37 23/3/16 95/73/65 97/74/39 98/75/38 96/46/66
f 44/5/30 43/11/30 18/21/11 100/77/68 103/76/71 48/29/34 47/28/33 20/5/13
f 40/21/27 104/82/72 99/21/67 38/21/26
f 2/21/2 38/21/26 99/21/67 101/80/69 102/78/70 100/77/68 18/21/11
f 39/25/25 48/29/34 103/76/71 105/79/73 106/81/74 104/82/72 40/21/27
f 107/5/75 112/5/80 114/5/82 109/20/77
f 109/20/77 114/5/82 113/8/81 110/5/78
f 110/5/78 113/8/81 111/8/79 108/8/76
f 115/83/83 120/83/88 122/33/90 117/84/85
f 117/84/85 122/33/90 121/33/89 118/83/86
f 118/13/86 121/13/89 119/13/87 116/13/84
f 41/7/28 44/5/30 20/5/13 112/5/80 107/5/75
f 16/5/9 14/5/8 108/8/76 111/8/79
f 14/5/8 26/7/19 41/7/28 107/5/75 109/20/77 110/5/78 108/8/76
f 12/5/7 16/5/9 111/8/79 113/8/81 114/5/82 112/5/80 20/5/13
f 29/4/19 13/4/8 115/83/83 117/84/85 118/83/86 116/4/84 50/4/36
f 13/4/8 15/4/9 120/83/88 115/83/83
f 24/13/17 51/13/37 50/14/36 116/13/84 119/13/87
f 15/6/9 11/6/7 24/6/17 119/6/87 121/85/89 122/6/90 120/6/88
f 124/36/92 127/35/95 129/86/97 126/87/94
f 126/87/94 129/86/97 130/88/98 125/89/93
f 125/89/93 130/88/98 128/90/96 123/91/91
f 132/92/100 135/93/103 137/94/105 134/95/102
f 134/95/102 137/94/105 138/96/106 133/97/101
f 133/97/101 138/98/106 136/46/104 131/99/99
f 135/93/103 128/90/96 130/88/98 137/94/105
f 137/94/105 130/88/98 129/86/97 138/96/106
f 138/98/106 129/46/97 127/51/95 136/46/104
f 131/99/99 124/36/92 126/87/94 133/97/101
f 133/97/101 126/87/94 125/89/93 134/95/102
f 134/95/102 125/89/93 123/91/91 132/92/100
f 123/91/91 128/90/96 135/93/103 132/92/100
f 69/44/47 68/44/46 1/36/1 124/36/92 131/99/99
f 1/36/1 3/35/3 127/35/95 124/36/92
f 3/46/3 73/46/51 76/51/54 136/46/104 127/51/95
f 76/51/54 75/50/53 70/45/48 69/44/47 131/99/99 136/46/104
f 139/100/107 144/101/112 146/102/114 141/100/109
f 141/100/109 146/102/114 145/2/113 142/2/110
f 142/2/110 145/2/113 143/2/111 140/69/108
f 147/103/115 152/1/120 154/71/122 149/1/117
f 149/3/117 154/104/122 153/105/121 150/3/118
f 150/3/118 153/105/121 151/3/119 148/59/116
f 79/52/57 82/52/30 19/2/12 144/101/112 139/100/107
f 10/2/6 8/2/5 140/69/108 143/2/111
f 8/2/5 60/2/44 79/52/57 139/100/107 141/100/109 142/2/110 140/69/108
f 5/2/4 10/2/6 143/2/111 145/2/113 146/102/114 144/101/112 19/2/12
f 63/71/44 7/1/5 147/103/115 149/1/117 150/71/118 148/1/116 90/1/64
f 7/1/5 9/1/6 152/1/120 147/103/115
f 23/3/16 91/59/37 90/59/64 148/59/116 151/3/119
f 9/3/6 6/3/4 23/3/16 151/3/119 153/105/121 154/104/122 152/3/120
