# Blender 4.5.0
# www.blender.org
mtllib model1.mtl
o Cube
v 1.000000 1.000000 -1.000000
v 1.000000 -1.000000 -1.000000
v 1.000000 1.000000 1.000000
v 1.000000 -1.000000 1.000000
v -1.000000 1.000000 -1.000000
v -1.000000 -1.000000 -1.000000
v -1.000000 1.000000 1.000000
v -1.000000 -1.000000 1.000000
v 1.000000 2.413919 0.586081
v -1.000000 2.000000 1.000000
v 1.000000 2.413919 -0.586081
v -1.000000 2.000000 -1.000000
v -1.000000 1.000000 -3.225507
v 2.573671 2.000000 -2.573671
v -1.000000 2.000000 -3.225507
v 1.000000 3.586081 0.586081
v 1.000000 3.586081 -0.586081
v 1.000000 2.000000 -1.000000
v 1.000000 2.000000 1.000000
v 0.187188 2.413919 -0.586081
v 0.187188 2.413919 0.586081
v 0.187188 3.586081 -0.586081
v 0.187188 3.586081 0.586081
v -0.800000 4.000000 0.800000
v -1.000000 3.800000 1.000000
v -0.831287 3.997538 0.831287
v -0.861803 3.990211 0.861803
v -0.890798 3.978202 0.890798
v -0.917557 3.961804 0.917557
v -0.941421 3.941422 0.941421
v -0.961803 3.917557 0.961803
v -0.978201 3.890798 0.978201
v -0.990211 3.861804 0.990211
v -0.997538 3.831287 0.997538
v -0.800000 4.000000 -0.800000
v -1.000000 3.800000 -1.000000
v -0.831287 3.997538 -0.831287
v -0.861803 3.990211 -0.861803
v -0.890798 3.978202 -0.890798
v -0.917557 3.961804 -0.917557
v -0.941421 3.941422 -0.941421
v -0.961803 3.917557 -0.961803
v -0.978201 3.890798 -0.978201
v -0.990211 3.861804 -0.990211
v -0.997538 3.831287 -0.997538
v 1.000000 3.800000 -1.000000
v 0.800000 4.000000 -0.800000
v 0.997538 3.831287 -0.997538
v 0.990211 3.861804 -0.990211
v 0.978201 3.890798 -0.978201
v 0.961803 3.917557 -0.961803
v 0.941421 3.941422 -0.941421
v 0.917557 3.961804 -0.917557
v 0.890798 3.978202 -0.890798
v 0.861803 3.990211 -0.861803
v 0.831287 3.997538 -0.831287
v 1.000000 3.800000 1.000000
v 0.800000 4.000000 0.800000
v 0.997538 3.831287 0.997538
v 0.990211 3.861804 0.990211
v 0.978201 3.890798 0.978201
v 0.961803 3.917557 0.961803
v 0.941421 3.941422 0.941421
v 0.917557 3.961804 0.917557
v 0.890798 3.978202 0.890798
v 0.861803 3.990211 0.861803
v 0.831287 3.997538 0.831287
v 2.925507 2.000000 1.000000
v 3.225507 1.700000 1.000000
v 3.171675 2.000000 0.704869
v 3.137639 1.912132 1.000000
v 3.165958 1.949511 0.950330
v 3.209740 1.912132 0.913558
v 3.121872 2.000000 0.913558
v 2.573671 1.300000 -2.573671
v 2.315764 1.000000 -2.315764
v 2.278541 1.000000 -2.627503
v 2.920558 1.000000 1.000000
v 3.225507 1.300000 1.000000
v 1.000000 0.333333 -1.000000
v 1.000000 -0.333333 -1.000000
v -1.000000 -0.333333 1.000000
v -1.000000 0.333333 1.000000
v 1.000000 0.333333 1.000000
v 1.000000 -0.333333 1.000000
v -1.000000 0.333333 -1.000000
v -1.000000 -0.333333 -1.000000
v 1.399622 0.333333 -0.600378
v 1.399622 -0.333333 -0.600378
v -0.600378 -0.333333 1.399622
v -0.600378 0.333333 1.399622
v -0.600378 0.333333 -0.600378
v -0.600378 -0.333333 -0.600378
v 1.000000 0.333333 -0.600378
v -0.600378 -0.333333 1.000000
v -0.600378 0.333333 1.000000
v 1.000000 -0.333333 -0.600378
vn -1.0000 -0.0000 -0.0000
vn -0.0000 -0.0000 1.0000
vn -0.0000 -1.0000 -0.0000
vn 1.0000 -0.0000 -0.0000
vn -0.0000 -0.0000 -1.0000
vn -0.0000 1.0000 -0.0000
vn -0.0000 0.9969 0.0785
vn -0.0000 0.9724 0.2334
vn -0.0000 0.9239 0.3827
vn -0.0000 0.8526 0.5225
vn -0.0000 0.7604 0.6495
vn -0.0000 0.6494 0.7604
vn -0.0000 0.5225 0.8526
vn -0.0000 0.3827 0.9239
vn -0.0000 0.2334 0.9724
vn -0.0000 0.0785 0.9969
vn 0.0785 0.9969 -0.0000
vn 0.2334 0.9724 -0.0000
vn 0.3827 0.9239 -0.0000
vn 0.5225 0.8526 -0.0000
vn 0.6494 0.7604 -0.0000
vn 0.7604 0.6494 -0.0000
vn 0.8526 0.5225 -0.0000
vn 0.9239 0.3827 -0.0000
vn 0.9724 0.2334 -0.0000
vn 0.9969 0.0785 -0.0000
vn -0.0785 0.9969 -0.0000
vn -0.2334 0.9724 -0.0000
vn -0.3827 0.9239 -0.0000
vn -0.5225 0.8526 -0.0000
vn -0.6494 0.7604 -0.0000
vn -0.7604 0.6494 -0.0000
vn -0.8526 0.5225 -0.0000
vn -0.9239 0.3827 -0.0000
vn -0.9724 0.2334 -0.0000
vn -0.9969 0.0785 -0.0000
vn -0.0000 0.9969 -0.0785
vn -0.0000 0.9724 -0.2334
vn -0.0000 0.9239 -0.3827
vn -0.0000 0.8526 -0.5225
vn -0.0000 0.7604 -0.6495
vn -0.0000 0.6494 -0.7604
vn -0.0000 0.5225 -0.8526
vn -0.0000 0.3827 -0.9239
vn -0.0000 0.2334 -0.9724
vn -0.0000 0.0785 -0.9969
vn 0.2825 0.6980 0.6580
vn 0.7333 0.2968 0.6117
vn 0.6980 0.6980 0.1598
vn 0.7179 -0.6909 -0.0857
vn 0.6956 -0.7071 -0.1269
vn 0.9838 -0.0000 -0.1794
vn 0.1794 -0.0000 -0.9838
vn 0.7071 -0.0000 -0.7071
vn -0.7071 -0.0000 0.7071
vt 0.625000 0.250000
vt 0.625000 0.000000
vt 0.541667 0.750000
vt 0.625000 0.750000
vt 0.625000 1.000000
vt 0.541667 1.000000
vt 0.541667 0.950047
vt 0.541667 0.000000
vt 0.541667 0.250000
vt 0.125000 0.500000
vt 0.375000 0.500000
vt 0.375000 0.750000
vt 0.125000 0.750000
vt 0.541667 0.500000
vt 0.625000 0.500000
vt 0.541667 0.549953
vt 0.875000 0.500000
vt 0.625000 0.698260
vt 0.625000 0.551740
vt 0.625000 0.551740
vt 0.650000 0.725000
vt 0.850000 0.725000
vt 0.853911 0.728911
vt 0.646089 0.728911
vt 0.857725 0.732725
vt 0.642275 0.732725
vt 0.861350 0.736350
vt 0.638650 0.736350
vt 0.864695 0.739695
vt 0.635305 0.739694
vt 0.871339 0.746339
vt 0.626809 0.748191
vt 0.625000 0.992678
vt 0.625000 0.995225
vt 0.625000 0.750000
vt 0.625000 0.997275
vt 0.625000 0.998776
vt 0.625000 0.750000
vt 0.625000 0.999692
vt 0.625000 0.750000
vt 0.625000 1.000000
vt 0.650000 0.525000
vt 0.646089 0.521089
vt 0.642274 0.517275
vt 0.638650 0.513650
vt 0.635305 0.510305
vt 0.628661 0.503661
vt 0.627387 0.502387
vt 0.626362 0.501362
vt 0.625612 0.500612
vt 0.625154 0.500154
vt 0.625000 0.500000
vt 0.850000 0.525000
vt 0.853911 0.521089
vt 0.857725 0.517275
vt 0.861350 0.513650
vt 0.864695 0.510305
vt 0.870099 0.502422
vt 0.625000 0.007322
vt 0.625000 0.242678
vt 0.625000 0.245225
vt 0.625000 0.004775
vt 0.625000 0.247275
vt 0.625000 0.002725
vt 0.625000 0.248776
vt 0.625000 0.001224
vt 0.625000 0.249692
vt 0.625000 0.000308
vt 0.625000 0.250000
vt 0.625000 0.000000
vt 0.870225 0.500000
vt 0.872275 0.500000
vt 0.873776 0.500000
vt 0.874692 0.500000
vt 0.875000 0.500000
vt 0.625000 0.750000
vt 0.625000 0.748612
vt 0.625000 0.743244
vt 0.625000 0.750000
vt 0.625000 0.743953
vt 0.625000 0.729354
vt 0.625000 0.500080
vt 0.625000 0.479354
vt 0.625000 0.750000
vt 0.375000 0.250000
vt 0.458333 0.250000
vt 0.458333 0.500000
vt 0.541667 0.450047
vt 0.458333 0.549953
vt 0.458333 0.750000
vt 0.375000 0.000000
vt 0.458333 0.000000
vt 0.541667 0.049953
vt 0.458333 0.950047
vt 0.458333 1.000000
vt 0.375000 1.000000
vt 0.458333 0.450047
vt 0.458333 0.049953
s 0
usemtl Material
f 5/1/1 7/2/1 10/2/1 12/1/1
f 84/3/2 3/4/2 7/5/2 83/6/2 96/7/2
f 83/8/1 7/2/1 5/1/1 86/9/1
f 6/10/3 2/11/3 4/12/3 8/13/3
f 80/14/4 1/15/4 3/4/4 84/3/4 94/16/4
f 86/9/5 5/1/5 1/15/5 80/14/5
f 12/17/6 18/15/6 14/15/6 15/17/6
f 7/5/2 3/4/2 19/4/2 10/5/2
f 5/1/1 12/1/1 15/1/1 13/1/1
f 16/18/5 9/18/5 21/18/5 23/18/5
f 11/19/4 9/18/4 19/4/4 18/15/4
f 21/18/4 20/19/4 22/20/4 23/18/4
f 9/18/6 11/19/6 20/19/6 21/18/6
f 11/19/2 17/20/2 22/20/2 20/19/2
f 17/20/3 16/18/3 23/18/3 22/20/3
f 58/21/7 24/22/7 26/23/7 67/24/7
f 67/24/8 26/23/8 27/25/8 66/26/8
f 66/26/9 27/25/9 28/27/9 65/28/9
f 65/28/10 28/27/10 29/29/10 64/30/10
f 64/30/11 29/29/11 30/31/11 63/32/11
f 63/32/12 30/33/12 31/34/12 62/35/12
f 62/35/13 31/34/13 32/36/13 61/4/13
f 61/4/14 32/36/14 33/37/14 60/38/14
f 60/38/15 33/37/15 34/39/15 59/40/15
f 59/40/16 34/39/16 25/41/16 57/4/16
f 47/42/17 58/21/17 67/24/17 56/43/17
f 56/43/18 67/24/18 66/26/18 55/44/18
f 55/44/19 66/26/19 65/28/19 54/45/19
f 54/45/20 65/28/20 64/30/20 53/46/20
f 53/46/21 64/30/21 63/32/21 52/47/21
f 52/47/22 63/32/22 62/35/22 51/48/22
f 51/48/23 62/35/23 61/4/23 50/49/23
f 50/49/24 61/4/24 60/38/24 49/50/24
f 49/50/25 60/38/25 59/40/25 48/51/25
f 48/51/26 59/40/26 57/4/26 46/52/26
f 24/22/27 35/53/27 37/54/27 26/23/27
f 26/23/28 37/54/28 38/55/28 27/25/28
f 27/25/29 38/55/29 39/56/29 28/27/29
f 28/27/30 39/56/30 40/57/30 29/29/30
f 29/29/31 40/57/31 41/58/31 30/31/31
f 30/59/32 41/60/32 42/61/32 31/62/32
f 31/62/33 42/61/33 43/63/33 32/64/33
f 32/64/34 43/63/34 44/65/34 33/66/34
f 33/66/35 44/65/35 45/67/35 34/68/35
f 34/68/36 45/67/36 36/69/36 25/70/36
f 35/53/37 47/42/37 56/43/37 37/54/37
f 37/54/38 56/43/38 55/44/38 38/55/38
f 38/55/39 55/44/39 54/45/39 39/56/39
f 39/56/40 54/45/40 53/46/40 40/57/40
f 40/57/41 53/46/41 52/47/41 41/58/41
f 41/58/42 52/47/42 51/48/42 42/71/42
f 42/71/43 51/48/43 50/49/43 43/72/43
f 43/72/44 50/49/44 49/50/44 44/73/44
f 44/73/45 49/50/45 48/51/45 45/74/45
f 45/74/46 48/51/46 46/52/46 36/75/46
f 10/5/2 19/4/2 57/4/2 25/41/2
f 47/42/6 35/53/6 24/22/6 58/21/6
f 12/1/1 10/2/1 25/70/1 36/69/1
f 18/15/5 12/17/5 36/75/5 46/52/5
f 16/18/4 17/20/4 46/52/4 57/4/4
f 17/20/4 11/19/4 18/15/4 46/52/4
f 9/18/4 16/18/4 57/4/4 19/4/4
f 68/76/47 71/40/47 72/77/47 74/78/47
f 69/79/48 73/80/48 72/77/48 71/40/48
f 70/81/49 74/78/49 72/77/49 73/80/49
f 18/15/6 19/4/6 68/76/6 74/78/6 70/81/6 14/15/6
f 75/15/50 76/82/50 77/83/50
f 75/15/51 79/40/51 78/84/51 76/82/51
f 79/40/52 75/15/52 14/15/52 70/81/52 73/80/52 69/79/52
f 1/15/3 5/1/3 13/1/3 77/83/3 76/82/3
f 3/4/3 1/15/3 76/82/3 78/84/3
f 75/15/53 77/83/53 13/1/53 15/1/53 14/15/53
f 19/4/2 3/4/2 78/84/2 79/40/2 69/79/2 71/40/2 68/76/2
f 6/85/5 87/86/5 81/87/5 2/11/5
f 86/9/3 80/14/3 94/88/3 92/9/3
f 2/11/4 81/87/4 97/89/4 85/90/4 4/12/4
f 81/87/4 80/14/4 94/16/4 84/3/4 85/90/4 97/89/4
f 8/91/1 82/92/1 87/86/1 6/85/1
f 83/8/3 96/93/3 91/8/3
f 4/12/2 85/90/2 95/94/2 82/95/2 8/96/2
f 85/90/2 84/3/2 96/7/2 83/6/2 82/95/2 95/94/2
f 93/86/5 92/9/5 94/88/5 88/14/5 89/87/5 97/97/5
f 90/92/1 91/8/1 96/93/1 92/9/1 93/86/1 95/98/1
f 82/95/54 83/6/54 91/6/54 90/95/54
f 87/86/6 82/92/6 95/98/6 93/86/6
f 80/14/55 81/87/55 89/87/55 88/14/55
f 81/87/6 97/97/6 89/87/6
f 95/98/6 82/92/6 90/92/6
f 96/93/3 83/8/3 86/9/3 92/9/3
f 97/97/6 81/87/6 87/86/6 93/86/6
f 94/88/3 80/14/3 88/14/3
